<?xml version="1.0" standalone="no"?>
<!DOCTYPE svg PUBLIC "-//W3C//DTD SVG 20010904//EN"
 "http://www.w3.org/TR/2001/REC-SVG-20010904/DTD/svg10.dtd">
<svg version="1.0" xmlns="http://www.w3.org/2000/svg"
 width="600.000000pt" height="600.000000pt" viewBox="0 0 600.000000 600.000000"
 preserveAspectRatio="xMidYMid meet">
<g transform="translate(0.000000,600.000000) scale(0.050000,-0.050000)"
fill="#1976d2" stroke="none">
<path d="M1886 11260 c-527 -138 -944 -528 -1122 -1050 l-54 -160 -5 -3987
c-6 -3956 -5 -3988 35 -4160 127 -535 505 -944 1050 -1136 l160 -57 3999 -5
c3948 -6 4002 -5 4159 35 579 146 1044 626 1164 1203 24 117 28 722 23 4122
l-5 3985 -47 140 c-180 537 -602 937 -1131 1070 -241 61 -7994 61 -8226 0z
m6956 -1998 l58 -59 0 -647 c0 -630 1 -647 41 -672 34 -21 40 -43 35 -120 -7
-110 23 -98 -426 -164 -419 -61 -430 -60 -430 45 -2 298 -313 511 -602 412
-166 -57 -298 -239 -298 -411 l0 -86 -1020 0 -1020 0 0 63 c0 566 -837 620
-898 57 l-12 -110 -360 0 c-350 0 -497 21 -630 89 -98 50 -15 221 108 221 143
0 160 146 17 156 -109 8 -109 9 -15 595 39 242 70 446 70 454 0 8 36 15 80 15
112 0 127 133 16 144 -61 6 -62 8 -28 41 33 33 186 35 2645 35 l2610 0 59 -58z
m-3954 -1327 c118 -68 159 -136 168 -280 23 -370 -468 -504 -636 -174 -152
297 180 619 468 454z m2980 -22 c266 -203 130 -613 -202 -613 -296 0 -448 329
-256 556 115 137 320 162 458 57z m-4194 -2267 l316 -455 5 455 6 454 159 0
160 0 0 -720 0 -720 -147 0 -146 0 -170 245 c-94 135 -237 341 -318 459 -82
118 -155 215 -161 215 -7 1 -13 -204 -13 -454 l0 -455 -153 -6 -152 -6 0 721
0 721 149 0 148 0 317 -454z m1627 124 c201 -71 317 -241 334 -491 l10 -139
-392 0 -393 0 0 -50 c0 -190 329 -277 459 -121 47 56 308 44 290 -14 -128
-431 -865 -411 -1020 27 -175 496 240 954 712 788z m1232 0 c243 -72 287 -186
287 -741 l0 -369 -150 0 -150 0 0 59 c0 77 -26 90 -72 38 -221 -248 -664 -77
-643 248 13 201 137 285 473 322 209 23 212 24 218 78 17 148 -220 214 -339
95 -55 -54 -72 -60 -191 -60 l-131 0 13 65 c45 232 372 358 685 265z m1218 9
c7 -12 7 -73 -1 -136 l-13 -115 -101 -2 c-229 -3 -256 -57 -256 -516 l0 -352
-153 6 -153 6 -2 550 -2 550 145 6 144 6 13 -83 14 -83 40 65 c62 97 284 164
325 98z m457 -164 c27 -91 79 -268 114 -395 83 -297 81 -296 147 -59 31 111
85 294 120 405 l64 204 163 6 c90 3 164 1 164 -4 0 -21 -436 -1208 -470 -1278
-75 -158 -233 -242 -436 -230 l-104 6 -6 115 -6 115 82 0 c87 0 180 67 180
129 0 17 -85 274 -190 571 -104 297 -190 549 -190 560 0 12 65 20 159 20 l159
0 50 -165z m-4334 -1578 c62 -59 61 -157 -2 -231 l-49 -56 -343 0 -343 0 -49
56 c-61 71 -63 166 -5 228 66 69 717 72 791 3z m-35 -606 c97 -50 113 -181 32
-262 -77 -76 -705 -76 -782 0 -82 82 -62 211 41 268 64 35 639 30 709 -6z
m2512 5 c110 -50 130 -176 43 -271 l-41 -45 -1033 0 c-1010 0 -1033 1 -1076
41 -91 84 -73 218 37 273 69 36 1993 37 2070 2z m-2480 -665 c30 -30 49 -72
49 -108 0 -162 -53 -183 -460 -183 -370 0 -420 20 -420 170 0 152 48 170 440
170 336 0 343 -1 391 -49z m2522 2 c42 -37 55 -66 55 -123 0 -57 -13 -86 -55
-123 l-55 -47 -1021 0 -1020 0 -61 61 c-53 53 -59 71 -49 135 24 150 -26 144
1124 144 l1027 0 55 -47z"/>
<path d="M3520 9026 c0 -9 -27 -173 -60 -366 -33 -192 -60 -361 -60 -375 0
-38 427 -35 458 3 16 19 21 138 17 385 l-5 357 -175 6 c-96 3 -175 -2 -175
-10z"/>
<path d="M4104 9016 c-49 -49 -32 -548 20 -585 47 -32 867 -47 1041 -18 l75
12 0 308 0 307 -556 0 c-406 0 -562 -6 -580 -24z"/>
<path d="M5300 8340 l0 -700 370 0 370 0 0 700 0 700 -370 0 -370 0 0 -700z
m680 611 c0 -46 -7 -49 -125 -55 l-125 -6 0 -540 0 -540 120 -10 c106 -9 121
-15 126 -55 l7 -45 -312 0 -311 0 0 49 c0 46 7 49 125 55 l125 6 0 540 0 540
-125 6 c-118 6 -125 9 -125 55 l0 49 310 0 310 0 0 -49z"/>
<path d="M6120 8730 l0 -310 77 0 c127 0 143 35 143 313 0 274 -16 307 -147
307 l-73 0 0 -310z"/>
<path d="M6484 9016 c-49 -49 -32 -548 20 -585 83 -58 565 -44 627 18 62 62
75 465 18 547 -37 52 -615 70 -665 20z"/>
<path d="M7324 9016 c-35 -35 -33 -543 2 -573 49 -40 610 -33 655 8 57 52 59
505 2 556 -46 42 -618 50 -659 9z"/>
<path d="M8161 9001 c-30 -55 -27 -527 3 -557 33 -33 479 -33 512 0 33 33 33
539 0 572 -45 45 -490 32 -515 -15z"/>
<path d="M8200 8240 c0 -12 93 -20 240 -20 147 0 240 8 240 20 0 12 -93 20
-240 20 -147 0 -240 -8 -240 -20z"/>
<path d="M8200 8130 c0 -27 33 -30 235 -26 307 8 304 44 -5 52 -198 4 -230 1
-230 -26z"/>
<path d="M8190 8020 c7 -12 114 -20 251 -20 146 0 239 8 239 20 0 12 -97 20
-251 20 -163 0 -247 -7 -239 -20z"/>
<path d="M8190 7920 c-7 -11 0 -25 15 -31 50 -19 465 0 460 21 -7 28 -458 38
-475 10z"/>
<path d="M4620 7740 c-50 -50 -53 -162 -5 -205 155 -135 345 55 210 210 -43
48 -155 45 -205 -5z"/>
<path d="M7561 7736 c-107 -115 15 -295 160 -236 97 40 123 144 58 227 -54 68
-159 73 -218 9z"/>
<path d="M4985 5533 c-53 -29 -94 -85 -110 -148 -11 -45 -10 -45 228 -45 265
0 268 3 184 136 -51 81 -207 110 -302 57z"/>
<path d="M6390 5147 c-208 -18 -290 -60 -290 -147 0 -153 323 -160 381 -8 23
60 25 169 4 165 -8 -2 -51 -7 -95 -10z"/>
</g>
</svg>
